<svg xmlns="http://www.w3.org/2000/svg" version="1.1" xmlns:xlink="http://www.w3.org/1999/xlink" xmlns:svgjs="http://svgjs.dev/svgjs" width="1500" height="530" viewBox="0 0 1500 530"><g transform="matrix(1,0,0,1,-0.9090909090907644,0.8816662999823848)"><svg viewBox="0 0 396 140" data-background-color="#3e373d" preserveAspectRatio="xMidYMid meet" height="530" width="1500" xmlns="http://www.w3.org/2000/svg" xmlns:xlink="http://www.w3.org/1999/xlink"><g id="tight-bounds" transform="matrix(1,0,0,1,0.23999999999995225,-0.23289298490101373)"><svg viewBox="0 0 395.52 140.465785969802" height="140.465785969802" width="395.52"><g><svg viewBox="0 0 677.0378382975259 240.444609849711" height="140.465785969802" width="395.52"><g transform="matrix(1,0,0,1,281.517838297526,33.23076735260116)"><svg viewBox="0 0 395.52 173.98307514450866" height="173.98307514450866" width="395.52"><g id="textblocktransform"><svg viewBox="0 0 395.52 173.98307514450866" height="173.98307514450866" width="395.52" id="textblock"><g><svg viewBox="0 0 395.52 173.98307514450866" height="173.98307514450866" width="395.52"><g transform="matrix(1,0,0,1,0,0)"><svg width="395.52" viewBox="3.65 -37.45 86.49 38.050000000000004" height="173.98307514450866" data-palette-color="#07ab4e"><path d="M3.65-36.95L8.05-37.45 8.05 0 3.65 0 3.65-36.95ZM16.25-26.35L20.75-26.35 12.85-14.65 21.55 0 16.65 0 8.3-14.4 16.25-26.35ZM41.7-26.35L41.7 0 37.9 0 37.6-3.7Q36.35-1.55 34.77-0.48 33.2 0.6 31.1 0.6L31.1 0.6Q28.25 0.6 26.55-1.35 24.85-3.3 24.85-6.45L24.85-6.45 24.85-26.35 29.25-26.35 29.25-6.9Q29.25-2.85 32.1-2.85L32.1-2.85Q33.75-2.85 35-4.03 36.25-5.2 37.3-7.3L37.3-7.3 37.3-26.35 41.7-26.35ZM59.75-26.9Q62.6-26.9 64.3-24.85 66-22.8 66-19.35L66-19.35 66 0 61.6 0 61.6-18.75Q61.6-21.3 60.87-22.38 60.15-23.45 58.7-23.45L58.7-23.45Q55.85-23.45 53.4-18.55L53.4-18.55 53.4 0 49 0 49-26.35 52.8-26.35 53.15-22.4Q54.45-24.6 56-25.75 57.55-26.9 59.75-26.9L59.75-26.9ZM90.14-13.95Q90.14-12.85 90.04-11.65L90.04-11.65 76.24-11.65Q76.44-6.9 77.82-4.95 79.19-3 81.74-3L81.74-3Q83.39-3 84.69-3.53 85.99-4.05 87.39-5.2L87.39-5.2 89.34-2.55Q86.04 0.6 81.59 0.6L81.59 0.6Q76.89 0.6 74.29-2.88 71.69-6.35 71.69-12.9L71.69-12.9Q71.69-19.45 74.17-23.18 76.64-26.9 81.14-26.9L81.14-26.9Q85.49-26.9 87.82-23.63 90.14-20.35 90.14-13.95L90.14-13.95ZM85.89-14.9L85.89-15.25Q85.89-19.55 84.74-21.5 83.59-23.45 81.14-23.45L81.14-23.45Q78.94-23.45 77.69-21.48 76.44-19.5 76.24-14.9L76.24-14.9 85.89-14.9Z" opacity="1" transform="matrix(1,0,0,1,0,0)" fill="#07ab4e" class="wordmark-text-0" data-fill-palette-color="primary" id="text-0"></path></svg></g></svg></g></svg></g></svg></g><g><svg viewBox="0 0 240.444609849711 240.444609849711" height="240.444609849711" width="240.444609849711"><g><svg xmlns="http://www.w3.org/2000/svg" xmlns:xlink="http://www.w3.org/1999/xlink" version="1.1" x="0" y="0" viewBox="0 0 64 64" enable-background="new 0 0 64 64" xml:space="preserve" height="240.444609849711" width="240.444609849711" class="icon-icon-0" data-fill-palette-color="accent" id="icon-0"><g fill="#07ab4e" data-fill-palette-color="accent"><path d="M58 0H6C2.7 0 0 2.7 0 6V58C0 61.3 2.7 64 6 64H58C61.299 64 64 61.3 64 58V6C64 2.7 61.299 0 58 0M50.805 7.285H56.791V12.197H50.805zM7.209 7.285H31.156V12.197H7.209zM57.328 56.111H6.671V18.645H57.328z" fill="#07ab4e" data-fill-palette-color="accent"></path><polygon points="23.662,41.776 14.259,36.063 23.662,30.554 23.662,24.695 10.18,33.638 10.18,38.611 23.662,47.593  " fill="#07ab4e" data-fill-palette-color="accent"></polygon><polygon points="53.82,33.638 40.338,24.695 40.338,30.554 49.74,36.063 40.338,41.776 40.338,47.593 53.82,38.611  " fill="#07ab4e" data-fill-palette-color="accent"></polygon><polygon points="37.379,21.938 33.424,21.938 26.621,50.351 30.501,50.351  " fill="#07ab4e" data-fill-palette-color="accent"></polygon></g></svg></g></svg></g></svg></g><defs></defs></svg><rect width="395.52" height="140.465785969802" fill="none" stroke="none" visibility="hidden"></rect></g></svg></g></svg>